<svg width="146" height="49" viewBox="0 0 146 49" fill="none" xmlns="http://www.w3.org/2000/svg">
<path d="M8.12305 23L9.60547 14.4688L12.2656 14.4746C13.2539 14.4785 13.9961 14.6797 14.4922 15.0781C14.9883 15.4766 15.2129 16.0371 15.166 16.7598C15.1113 17.623 14.6133 18.2539 13.6719 18.6523C14.0117 18.7695 14.2754 18.9902 14.4629 19.3145C14.6504 19.6348 14.7305 20.0137 14.7031 20.4512C14.6484 21.2559 14.332 21.8828 13.7539 22.332C13.1797 22.7773 12.3945 23 11.3984 23H8.12305ZM10.4902 19.2852L10.0859 21.5879L11.4395 21.5938C11.8613 21.5938 12.2148 21.4902 12.5 21.2832C12.7852 21.0723 12.9551 20.7891 13.0098 20.4336C13.0645 20.082 13.0156 19.8086 12.8633 19.6133C12.7148 19.4141 12.4629 19.3066 12.1074 19.291L10.4902 19.2852ZM10.7012 18.043L11.8672 18.0547C12.3008 18.0469 12.6543 17.9453 12.9277 17.75C13.2051 17.5547 13.3711 17.2832 13.4258 16.9355C13.5234 16.248 13.1621 15.9023 12.3418 15.8984L11.0762 15.8926L10.7012 18.043ZM21.2422 19.3027H17.9727L17.5742 21.5879H21.418L21.1719 23H15.6113L17.0938 14.4688H22.6426L22.3906 15.8926H18.5645L18.207 17.9258H21.4883L21.2422 19.3027Z" fill="#41414D"/>
<path d="M7.59375 26.8926H5.0625L3.83203 34H2.11523L3.3457 26.8926H0.84375L1.0957 25.4688H7.8457L7.59375 26.8926ZM14.1387 34H12.4219L13.0547 30.3438H9.74414L9.10547 34H7.38867L8.87109 25.4688H10.5879L9.98438 28.9258H13.3008L13.8984 25.4688H15.6152L14.1387 34ZM21.3047 30.3027H18.0352L17.6367 32.5879H21.4805L21.2344 34H15.6738L17.1562 25.4688H22.7051L22.4531 26.8926H18.627L18.2695 28.9258H21.5508L21.3047 30.3027Z" fill="#41414D"/>
<path d="M41.8574 31.0225C42.1445 29.3955 41.3447 28.1514 39.458 27.29L35.5 25.7109C30.9062 23.6602 28.7256 20.8369 28.958 17.2412C29.0537 15.5732 29.6006 14.0967 30.5986 12.8115C31.5967 11.5264 32.998 10.5215 34.8027 9.79688C36.6074 9.05859 38.5557 8.70313 40.6475 8.73047C43.5322 8.78516 45.8633 9.64648 47.6406 11.3145C49.418 12.9688 50.293 15.1904 50.2656 17.9795H44.2773C44.3457 16.626 44.0449 15.5732 43.375 14.8213C42.7188 14.0693 41.6934 13.6797 40.2988 13.6523C38.9316 13.625 37.7422 13.9395 36.7305 14.5957C35.7188 15.2383 35.1172 16.127 34.9258 17.2617C34.666 18.752 35.6641 19.9346 37.9199 20.8096L40.627 21.835L42.1855 22.5527C46.2188 24.5488 48.1055 27.3516 47.8457 30.9609C47.7227 32.7246 47.1553 34.249 46.1436 35.5342C45.1455 36.8057 43.7783 37.7832 42.042 38.4668C40.3193 39.1504 38.4189 39.4717 36.3408 39.4307C34.2217 39.3896 32.335 38.9453 30.6807 38.0977C29.0264 37.25 27.7686 36.0537 26.9072 34.5088C26.1006 33.0732 25.7246 31.4326 25.7793 29.5869L31.7881 29.6074C31.5967 32.8477 33.1895 34.4951 36.5664 34.5498C38.0293 34.5498 39.2324 34.2285 40.1758 33.5859C41.1191 32.9434 41.6797 32.0889 41.8574 31.0225ZM63.5957 9.14062L67.2666 30.7354L78.4023 9.14062H86.4004L81.2119 39H75.1826L76.6592 30.4893L79.5713 17.2002L68.1279 39H64.0059L60.0068 16.4414L58.0791 31.1455L56.7051 39H50.6963L55.8848 9.14062H63.5957ZM92.9834 39H86.9746L92.1426 9.14062H98.1514L92.9834 39ZM105.555 34.0576H118.229L117.367 39H98.6846L103.873 9.14062H109.882L105.555 34.0576ZM140.664 26.0596H129.221L127.826 34.0576H141.279L140.418 39H120.956L126.145 9.14062H145.565L144.684 14.124H131.292L130.041 21.2402H141.525L140.664 26.0596Z" fill="#E02041"/>
</svg>
